# xmcd
#
# Track frame offsets:
#	150
#	19482
#	37132
#	56277
#	71812
#	85770
#	104462
#	121057
#	139047
#	152050
#	172952
#	184570
#	200960
#	217895
#	231935
#	248215
#	263585
#	277372
#	296992
#	323770
#
# Disc length: 4552 seconds
#
# Revision: 1
# Processed by: cddbd v1.5.1PL0 Copyright (c) Steve Scherf et al.
# Submitted via: CDex 1.50Beta5
#
DISCID=3111c614
DTITLE=Various Artist - 幻の名盤解放歌集春の紅白歌合戦
DYEAR=1900
DGENRE=Unclassifiable
TTITLE0=長谷二郎/闇夜のブルース
TTITLE1=勝新太郎/さすらいの旅
TTITLE2=里見洋と一番星/新盛り場ブルース
TTITLE3=里見洋と一番星/慕情〜天草の女
TTITLE4=角石/若き百姓
TTITLE5=角石/休耕田に立つ百姓
TTITLE6=北　九州男/歌舞伎町ブルース
TTITLE7=北　九州男/粋な年輪
TTITLE8=広瀬友剛/ウエブロ（なぜ呼ぶの）
TTITLE9=広瀬友剛/何も変わっちゃいないさ
TTITLE10=野口正見/OH　Yahラッシー
TTITLE11=毛利大作/社長さんは涙だ溜息だ
TTITLE12=新城健とブルーシャンデリー/さいはての女
TTITLE13=俵健一郎/赤い自転車
TTITLE14=山川登とベストセラーズ/世間知らず
TTITLE15=山川登とベストセラーズ/ガッカリしているの
TTITLE16=フレンズ/熱いおくりもの
TTITLE17=根来ジョージ/平和の誓い
TTITLE18=寺内タケシ/望郷の唄
TTITLE19=勝新太郎/波止場町ふたり町
EXTD=
EXTT0=
EXTT1=
EXTT2=
EXTT3=
EXTT4=
EXTT5=
EXTT6=
EXTT7=
EXTT8=
EXTT9=
EXTT10=
EXTT11=
EXTT12=
EXTT13=
EXTT14=
EXTT15=
EXTT16=
EXTT17=
EXTT18=
EXTT19=
PLAYORDER=
